<?xml version="1.0" standalone="no"?>
<!DOCTYPE svg PUBLIC "-//W3C//DTD SVG 20010904//EN"
 "http://www.w3.org/TR/2001/REC-SVG-20010904/DTD/svg10.dtd">
<svg version="1.0" xmlns="http://www.w3.org/2000/svg"
 width="500.000000pt" height="500.000000pt" viewBox="0 0 500.000000 500.000000"
 preserveAspectRatio="xMidYMid meet">

<g transform="translate(0.000000,500.000000) scale(0.100000,-0.100000)"
fill="#000000" stroke="none">
<path d="M2888 3718 l-88 -41 0 -68 c0 -63 12 -96 23 -67 3 7 8 -6 12 -30 9
-49 10 -50 61 -56 44 -6 54 4 54 52 0 30 19 47 21 20 1 -7 5 -2 9 12 10 32 12
220 3 219 -5 0 -47 -19 -95 -41z"/>
<path d="M2573 3527 l-93 -52 0 -67 c0 -39 4 -68 10 -68 6 0 10 8 10 18 1 12
5 10 15 -10 13 -24 20 -26 65 -25 27 0 50 5 50 10 0 4 5 5 10 2 6 -3 10 1 10
10 0 9 5 13 10 10 6 -4 10 35 10 109 0 64 -1 116 -2 116 -2 -1 -45 -24 -95
-53z"/>
<path d="M2309 3372 c-24 -15 -56 -33 -71 -41 -24 -12 -28 -20 -27 -55 1 -39
2 -40 9 -11 5 20 8 24 9 10 1 -15 3 -17 10 -7 6 10 25 13 64 10 42 -3 58 -1
62 10 8 22 6 112 -3 112 -4 0 -28 -12 -53 -28z"/>
<path d="M3007 3211 c-4 -19 -7 -65 -7 -103 l0 -69 40 23 40 23 0 80 c0 48 -4
75 -9 67 -4 -8 -12 -14 -16 -14 -4 0 -12 6 -16 14 -7 10 -9 8 -10 -7 0 -20 -1
-20 -8 0 -7 16 -9 14 -14 -14z"/>
<path d="M2398 3163 c-25 -6 -27 -24 -7 -70 27 -63 49 -57 49 11 0 55 -8 66
-42 59z"/>
<path d="M3037 3013 c-117 -76 -145 -98 -132 -106 22 -12 24 -11 185 94 98 64
137 95 128 100 -7 5 -17 9 -23 9 -5 0 -77 -44 -158 -97z"/>
<path d="M2687 2861 c-4 -35 -7 -105 -7 -155 l1 -91 39 45 39 45 0 95 c-1 58
-4 83 -8 65 l-7 -30 -7 28 c-7 27 -26 37 -28 15 -1 -7 -4 1 -8 17 -6 25 -8 20
-14 -34z"/>
<path d="M2880 2840 c0 -35 -8 -57 -34 -95 -44 -65 -130 -162 -175 -198 -20
-16 -38 -32 -41 -36 -3 -4 -20 -17 -38 -30 -39 -28 -35 -42 5 -16 l28 18 -19
-21 c-11 -12 -22 -22 -26 -22 -4 0 -24 -15 -43 -33 -41 -37 -191 -99 -284
-117 -34 -7 -104 -11 -156 -8 -114 5 -185 35 -248 106 -44 50 -61 82 -84 165
l-15 52 5 -77 c10 -132 55 -233 144 -325 65 -66 125 -105 214 -140 66 -26 83
-28 207 -28 118 0 143 3 198 24 34 13 61 26 59 28 -2 2 -17 -1 -32 -7 -15 -6
-30 -8 -33 -5 -3 2 6 9 19 14 14 6 18 10 8 10 -26 1 -25 92 1 116 11 10 20 29
20 42 0 13 6 23 14 23 26 0 48 48 44 100 l-4 48 73 64 c100 85 216 229 242
301 14 37 4 80 -17 72 -8 -3 -19 0 -24 7 -4 8 -8 -5 -8 -32z"/>
<path d="M2420 2660 c0 -5 5 -10 11 -10 5 0 7 5 4 10 -3 6 -8 10 -11 10 -2 0
-4 -4 -4 -10z"/>
<path d="M2346 2597 c3 -10 9 -15 12 -12 3 3 0 11 -7 18 -10 9 -11 8 -5 -6z"/>
<path d="M2443 2574 c9 -9 -23 -33 -45 -34 -10 0 -18 5 -18 10 0 15 -17 12
-23 -4 -4 -10 -1 -13 9 -9 7 3 14 1 14 -5 0 -6 10 -8 23 -5 18 4 19 3 7 -6
-13 -9 -13 -11 3 -11 9 0 17 6 17 14 0 8 9 21 20 29 19 13 20 15 3 21 -9 4
-14 4 -10 0z"/>
<path d="M2191 2534 c0 -11 3 -14 6 -6 3 7 2 16 -1 19 -3 4 -6 -2 -5 -13z"/>
<path d="M2453 2535 c-3 -9 -3 -19 1 -22 3 -4 6 1 6 10 0 8 6 18 13 20 9 4 9
6 -1 6 -7 1 -15 -6 -19 -14z"/>
<path d="M2227 2494 c6 -68 11 -77 12 -24 0 25 -3 51 -8 59 -5 8 -7 -5 -4 -35z"/>
<path d="M2192 2439 l-1 -66 27 5 27 6 -25 7 c-24 7 -24 7 -2 8 24 1 31 21 7
21 -13 0 -17 8 -28 65 -2 11 -4 -10 -5 -46z"/>
<path d="M2072 2416 c7 -8 15 -12 17 -11 5 6 -10 25 -20 25 -5 0 -4 -6 3 -14z"/>
<path d="M2054 2383 c10 -11 56 -11 56 -1 0 4 -14 8 -32 8 -17 0 -28 -3 -24
-7z"/>
<path d="M3542 1958 c-29 -29 -3 -72 40 -66 19 2 23 9 23 38 0 30 -4 35 -25
38 -14 2 -31 -3 -38 -10z"/>
<path d="M748 1948 c21 -11 22 -16 22 -155 0 -140 -1 -144 -22 -153 -16 -6 8
-9 77 -8 55 0 89 3 75 7 -23 6 -25 12 -28 74 l-3 67 43 0 c87 0 138 63 104
128 -21 41 -61 52 -185 51 -84 0 -101 -3 -83 -11z m170 -38 c21 -41 0 -110
-34 -110 -11 0 -14 17 -14 71 0 61 2 70 17 67 10 -2 23 -14 31 -28z"/>
<path d="M1898 1948 c21 -11 22 -16 22 -155 0 -140 -1 -144 -22 -153 -16 -6 5
-9 72 -9 67 0 88 3 73 9 -21 8 -23 16 -23 75 0 36 2 65 5 65 2 0 23 -34 46
-75 l41 -75 61 0 c50 0 58 2 45 13 -8 6 -32 40 -51 74 l-36 62 29 30 c49 48
37 111 -25 137 -43 18 -274 20 -237 2z m176 -24 c19 -18 22 -94 4 -112 -7 -7
-22 -12 -35 -12 -22 0 -23 4 -23 70 0 62 2 70 19 70 11 0 27 -7 35 -16z"/>
<path d="M2964 1944 c13 -12 16 -41 16 -154 0 -122 -2 -140 -17 -149 -14 -8 0
-10 52 -10 39 0 64 3 58 6 -10 3 -13 46 -13 164 l0 159 -56 0 c-50 0 -54 -1
-40 -16z"/>
<path d="M3387 1879 c-31 -31 -43 -49 -33 -49 13 0 16 -14 16 -81 0 -44 5 -89
10 -100 18 -33 110 -22 110 14 0 5 -6 4 -13 -2 -22 -18 -27 -2 -27 86 0 76 2
83 20 83 11 0 20 5 20 10 0 6 -9 10 -20 10 -17 0 -20 7 -20 40 0 22 -3 40 -7
39 -5 -1 -30 -23 -56 -50z"/>
<path d="M1095 1829 c-32 -28 -35 -36 -35 -84 0 -64 24 -99 80 -116 75 -23
140 28 140 108 0 111 -104 163 -185 92z m103 -69 c4 -92 -3 -120 -27 -120 -26
0 -31 19 -31 109 0 84 4 93 35 89 18 -3 20 -11 23 -78z"/>
<path d="M1314 1851 c-2 -2 0 -9 5 -15 5 -6 22 -54 39 -106 17 -52 36 -95 43
-95 6 0 24 33 38 73 14 39 28 72 32 72 3 0 16 -34 29 -75 13 -41 29 -75 36
-75 6 0 26 44 44 98 18 53 37 103 42 110 8 9 3 12 -18 11 -16 0 -24 -3 -17 -5
8 -4 8 -15 1 -42 -16 -57 -20 -59 -34 -12 -7 24 -11 47 -8 52 3 4 -20 8 -50 8
-51 0 -55 -2 -45 -17 8 -13 7 -27 -5 -53 -13 -31 -15 -33 -22 -16 -4 11 -8 34
-8 52 -1 31 -2 32 -49 36 -27 2 -51 1 -53 -1z"/>
<path d="M1697 1839 c-54 -42 -60 -144 -11 -190 35 -33 104 -32 139 1 31 29
33 47 3 26 -12 -9 -32 -16 -45 -16 -25 0 -53 34 -53 65 0 17 6 20 48 19 26 0
53 2 60 4 22 8 13 53 -17 83 -36 35 -86 39 -124 8z m81 -42 c3 -34 1 -37 -22
-37 -23 0 -26 4 -26 33 0 38 7 49 30 45 9 -2 16 -16 18 -41z"/>
<path d="M2297 1839 c-32 -25 -52 -85 -43 -131 14 -74 94 -108 155 -66 19 13
37 30 39 38 4 12 1 11 -15 -2 -41 -37 -103 -9 -103 47 0 19 6 21 60 21 59 -1
60 -1 60 27 0 18 -11 39 -29 58 -36 35 -86 39 -124 8z m77 -15 c3 -9 6 -27 6
-40 0 -19 -5 -24 -25 -24 -22 0 -25 4 -25 33 0 19 3 37 7 40 11 12 31 7 37 -9z"/>
<path d="M2625 1849 c-3 -4 0 -9 7 -11 10 -4 9 -14 -1 -46 -8 -23 -17 -42 -21
-42 -10 0 -32 79 -25 90 4 6 -16 10 -49 10 -51 0 -55 -2 -45 -17 5 -10 25 -58
42 -108 20 -55 38 -90 46 -90 9 0 26 35 45 91 17 50 37 99 45 108 7 9 12 16
10 17 -23 5 -51 4 -54 -2z"/>
<path d="M2763 1850 c-51 -22 -76 -105 -48 -163 33 -70 124 -85 179 -31 45 46
44 136 -4 179 -22 20 -95 29 -127 15z m81 -32 c9 -37 7 -138 -4 -159 -15 -27
-39 -24 -50 7 -13 33 -13 130 0 155 15 26 46 24 54 -3z"/>
<path d="M3239 1772 c3 -84 -6 -112 -35 -112 -11 0 -14 21 -14 95 l0 95 -42 0
-43 0 5 -93 c3 -58 10 -100 19 -111 16 -19 71 -21 90 -3 11 10 14 10 18 0 3
-8 22 -13 46 -13 l42 0 -3 109 -3 109 -42 4 -42 3 4 -83z"/>
<path d="M3710 1843 c-41 -28 -49 -45 -50 -99 0 -63 24 -99 80 -115 32 -10 44
-9 76 7 47 23 64 54 64 114 -1 66 -45 110 -110 110 -20 0 -47 -8 -60 -17z m88
-83 c4 -92 -3 -120 -27 -120 -26 0 -31 19 -31 109 0 84 4 93 35 89 18 -3 20
-11 23 -78z"/>
<path d="M4036 1851 c-3 -5 -34 -7 -69 -4 -51 5 -60 3 -49 -8 15 -16 17 -162
2 -190 -10 -18 -7 -19 45 -19 36 0 54 4 50 10 -4 6 -9 43 -12 83 -4 65 -2 75
17 92 18 16 23 17 30 5 13 -20 12 -147 0 -171 -10 -18 -7 -19 45 -19 52 0 55
1 45 19 -5 11 -10 55 -10 99 0 64 -4 82 -18 95 -20 18 -67 23 -76 8z"/>
<path d="M3519 1841 c18 -11 16 -192 -2 -203 -7 -4 19 -8 56 -8 62 0 67 1 53
16 -12 12 -16 37 -16 110 l0 94 -52 0 c-35 0 -48 -3 -39 -9z"/>
<path d="M1577 1403 c-10 -16 -8 -205 1 -199 8 5 13 206 6 206 -2 0 -5 -3 -7
-7z"/>
<path d="M1625 1400 c-28 -7 -27 -8 13 -9 23 0 42 4 42 9 0 11 -11 11 -55 0z"/>
<path d="M1808 1397 c17 -21 20 -170 3 -183 -11 -8 -7 -11 18 -11 18 0 27 3
21 7 -7 4 -11 41 -9 100 2 90 1 93 -21 97 -18 3 -20 0 -12 -10z"/>
<path d="M2000 1404 c0 -4 6 -15 14 -23 8 -9 39 -52 68 -95 55 -83 74 -100 74
-67 0 10 -5 17 -12 14 -6 -2 -36 34 -67 80 -52 79 -77 109 -77 91z"/>
<path d="M2587 1397 c-10 -27 -7 -187 4 -187 6 0 10 29 9 78 -2 101 -1 112 8
92 21 -46 115 -179 123 -174 13 7 10 193 -3 200 -6 4 -9 -28 -6 -90 1 -53 2
-96 1 -96 0 0 -28 43 -62 95 -33 52 -63 95 -65 95 -2 0 -6 -6 -9 -13z"/>
<path d="M2940 1397 c-56 -28 -69 -118 -25 -167 21 -23 69 -35 92 -22 13 8 10
10 -19 10 -49 0 -75 16 -83 52 -16 71 18 120 83 123 24 1 36 4 29 9 -18 11
-49 9 -77 -5z"/>
<path d="M3175 1398 c-2 -7 -3 -53 -2 -103 l2 -90 53 -3 c34 -2 52 1 52 8 0 7
-17 10 -47 9 -33 -2 -48 0 -47 9 1 7 2 27 3 45 1 32 3 34 36 32 19 -2 35 1 35
6 0 5 -16 9 -35 9 -37 0 -41 9 -36 68 2 24 -7 30 -14 10z"/>
<path d="M3230 1400 l-35 -7 43 -2 c23 0 42 4 42 9 0 6 -3 9 -7 9 -5 -1 -24
-5 -43 -9z"/>
<path d="M2140 1323 c0 -42 2 -74 5 -72 8 9 11 149 3 149 -4 0 -8 -34 -8 -77z"/>
<path d="M2349 1373 c-42 -106 -59 -156 -56 -159 4 -5 26 45 53 119 9 26 20
47 24 47 7 0 30 -68 30 -88 0 -6 -12 -13 -27 -15 -23 -3 -22 -4 5 -3 29 1 36
-4 53 -39 25 -53 14 -10 -23 88 -16 42 -34 77 -39 77 -5 0 -14 -12 -20 -27z"/>
<path d="M2003 1280 c0 -47 2 -66 4 -42 2 23 2 61 0 85 -2 23 -4 4 -4 -43z"/>
<path d="M1600 1301 c0 -12 59 -11 66 1 3 4 -11 8 -30 8 -20 0 -36 -4 -36 -9z"/>
</g>
</svg>
