<?xml version="1.0" encoding="utf-8"?>
<svg width="230" height="139" viewBox="0 0 230 139" fill="none" xmlns="http://www.w3.org/2000/svg">
  <g clip-path="url(#clip0_620_65)">
    <path d="M195.187 124.523C200.53 111.381 202.567 97.1282 201.118 83.0154C199.669 68.9027 194.78 55.361 186.878 43.5783C178.976 31.7957 168.304 22.132 155.797 15.4351C143.29 8.73817 129.331 5.21258 115.144 5.16761C100.957 5.12264 86.9761 8.55965 74.4271 15.1772C61.878 21.7947 51.1446 31.3904 43.1683 43.1228C35.192 54.8551 30.2165 68.3655 28.6783 82.4688C27.1401 96.5721 29.0862 110.837 34.3459 124.013L114.869 91.8692L195.187 124.523Z" fill="url(#paint0_linear_620_65)"/>
    <mask id="path-2-inside-1_620_65" fill="white">
      <path d="M115.013 3.97763C134.391 3.98053 153.226 10.3775 168.597 22.1763L164.309 27.7622C150.167 16.9073 132.839 11.0221 115.012 11.0194L115.013 3.97763Z"/>
    </mask>
    <path d="M115.013 3.97763C134.391 3.98053 153.226 10.3775 168.597 22.1763L164.309 27.7622C150.167 16.9073 132.839 11.0221 115.012 11.0194L115.013 3.97763Z" fill="#FC930B" stroke="white" stroke-width="1.75507" mask="url(#path-2-inside-1_620_65)"/>
    <mask id="path-3-inside-2_620_65" fill="white">
      <path d="M33.6731 125.673C28.1356 112.299 25.9818 97.7654 27.4027 83.3601C28.8235 68.9547 33.7751 55.122 41.8188 43.0874C49.8624 31.0527 60.75 21.1875 73.517 14.3656C86.2839 7.54373 100.536 3.97572 115.012 3.97763L115.011 11.0194C101.693 11.0177 88.5812 14.3002 76.8356 20.5764C65.09 26.8525 55.0735 35.9285 47.6733 47.0004C40.2731 58.0723 35.7176 70.7983 34.4104 84.0512C33.1033 97.3042 35.0847 110.675 40.1793 122.979L33.6731 125.673Z"/>
    </mask>
    <path d="M33.6731 125.673C28.1356 112.299 25.9818 97.7654 27.4027 83.3601C28.8235 68.9547 33.7751 55.122 41.8188 43.0874C49.8624 31.0527 60.75 21.1875 73.517 14.3656C86.2839 7.54373 100.536 3.97572 115.012 3.97763L115.011 11.0194C101.693 11.0177 88.5812 14.3002 76.8356 20.5764C65.09 26.8525 55.0735 35.9285 47.6733 47.0004C40.2731 58.0723 35.7176 70.7983 34.4104 84.0512C33.1033 97.3042 35.0847 110.675 40.1793 122.979L33.6731 125.673Z" fill="#F13D46" stroke="white" stroke-width="1.75507" mask="url(#path-3-inside-2_620_65)"/>
    <mask id="path-4-inside-3_620_65" fill="white">
      <path d="M168.59 22.1714C177.76 29.209 185.454 37.9838 191.233 47.9949L185.134 51.5153C179.818 42.3051 172.739 34.2323 164.303 27.7577L168.59 22.1714Z"/>
    </mask>
    <path d="M168.59 22.1714C177.76 29.209 185.454 37.9838 191.233 47.9949L185.134 51.5153C179.818 42.3051 172.739 34.2323 164.303 27.7577L168.59 22.1714Z" fill="#FCC80B" stroke="white" stroke-width="1.75507" mask="url(#path-4-inside-3_620_65)"/>
    <mask id="path-5-inside-4_620_65" fill="white">
      <path d="M191.244 48.0129C195.091 54.6813 198.046 61.8256 200.035 69.2628L193.232 71.0818C191.403 64.2395 188.683 57.6668 185.144 51.5319L191.244 48.0129Z"/>
    </mask>
    <path d="M191.244 48.0129C195.091 54.6813 198.046 61.8256 200.035 69.2628L193.232 71.0818C191.403 64.2395 188.683 57.6668 185.144 51.5319L191.244 48.0129Z" fill="#00AF41" stroke="white" stroke-width="1.75507" mask="url(#path-5-inside-4_620_65)"/>
    <mask id="path-6-inside-5_620_65" fill="white">
      <path d="M200.033 69.2534C205.04 87.9726 203.731 107.821 196.307 125.72L189.803 123.023C196.632 106.555 197.837 88.2948 193.23 71.0731L200.033 69.2534Z"/>
    </mask>
    <path d="M200.033 69.2534C205.04 87.9726 203.731 107.821 196.307 125.72L189.803 123.023C196.632 106.555 197.837 88.2948 193.23 71.0731L200.033 69.2534Z" fill="#017B30" stroke="white" stroke-width="1.75507" mask="url(#path-6-inside-5_620_65)"/>
    <text style="fill: rgb(51, 51, 51); font-family: Arial, sans-serif; font-size: 7.2px; font-weight: 700; white-space: pre;" x="208.758" y="120.701">10</text>
    <text style="white-space: pre; fill: rgb(51, 51, 51); font-family: Arial, sans-serif; font-size: 7.2px;" x="250.337" y="117.265">Enter your text here</text>
    <text style="white-space: pre; fill: rgb(51, 51, 51); font-family: Arial, sans-serif; font-size: 7.2px;" x="250.337" y="117.265">Enter your text here</text>
  </g>
  <defs>
    <linearGradient id="paint0_linear_620_65" x1="34.7689" y1="61.0614" x2="191.449" y2="116.075" gradientUnits="userSpaceOnUse">
      <stop offset="0.2257" stop-color="#FFD4CC"/>
      <stop offset="0.6131" stop-color="#FDE3C1"/>
      <stop offset="0.7595" stop-color="#FFF5D0"/>
      <stop offset="0.907" stop-color="#D3F1C9"/>
      <stop offset="1" stop-color="#D1F2C8"/>
    </linearGradient>
    <clipPath id="clip0_620_65">
      <rect width="230" height="139" fill="white"/>
    </clipPath>
  </defs>
  <text style="fill: rgb(51, 51, 51); font-family: Arial, sans-serif; font-size: 7.2px; font-weight: 700; white-space: pre;" x="23.195" y="122.878">0</text>
</svg>